  <svg id="icon-logo" viewBox="0 0 360 360"><path d="M775.8 34.1C691.3 37.6 619 60.7 606.2 88.2c-2.1 4.6-2.2 5.8-2.2 41.2 0 34.5.1 37.2 2.6 51.8 10.7 63.5 74.6 270.7 154.2 499.8 7.2 20.6 18.3 52.6 24.7 71 25 72.1 55.1 169.9 66.4 215.8 6.4 25.8 7.1 32.7 7.1 68.2v31.2l-3.7 3.7c-4.8 4.8-15.7 9.3-29.3 12.2-13.9 3-44.7 3.3-58.1.6-17.5-3.5-30.4-9.2-34-15-1.6-2.7-1.9-5.1-1.9-16.5V1039H604v15.3c0 14.5.1 15.6 2.6 20.6 12 24 63.6 44.8 130.4 52.5 105.4 12.2 229.1-13.4 247.7-51.2l2.8-5.7v-37c0-25.4-.4-39.7-1.3-45.5-6.1-39.9-39-153.7-73.6-255-6.8-20.1-21.8-64.2-33.4-98C803.7 413.6 746 227 734.9 169c-1.8-9.6-2.2-16.2-2.6-40.6-.6-33.3-.6-33.4 7.5-38.5 6.8-4.3 21.4-8.6 35.4-10.5 31.9-4.2 71.3 2.9 81.2 14.6 2.5 3.1 2.6 3.5 2.6 17.1V125h129.2l-.4-14.8c-.3-13.3-.5-15.2-2.9-20.2-6.6-14.1-25.4-26.6-55.7-37.1-30.2-10.4-67.9-17.1-103.5-18.4-8.4-.3-18.8-.7-23.2-.9-4.4-.1-16.4.1-26.7.5zM154 38.6c0 1.6 138.5 1077.5 139.6 1084.6l.6 3.8h70.9c65.8 0 70.9-.1 70.9-1.7 0-2.2 135.9-1081.9 136.6-1085.6l.6-2.7H438l-.4 2.2c-.3 1.3-16.5 165-36.1 363.8-19.5 198.8-35.8 363.3-36.3 365.4-.5 2.8-11.8-104-38.1-359-20.5-199.6-37.6-365-37.8-367.7l-.6-4.7h-67.3c-60.8 0-67.4.2-67.4 1.6z"/></svg>
